<svg id="visual" viewBox="0 0 960 540" width="960" height="540" xmlns="http://www.w3.org/2000/svg" xmlns:xlink="http://www.w3.org/1999/xlink" version="1.1"><rect x="0" y="0" width="960" height="540" fill="#080021"></rect><defs><linearGradient id="grad1_0" x1="43.8%" y1="0%" x2="100%" y2="100%"><stop offset="14.444444444444446%" stop-color="#3c9bfa" stop-opacity="1"></stop><stop offset="85.55555555555554%" stop-color="#3c9bfa" stop-opacity="1"></stop></linearGradient></defs><defs><linearGradient id="grad1_1" x1="43.8%" y1="0%" x2="100%" y2="100%"><stop offset="14.444444444444446%" stop-color="#3c9bfa" stop-opacity="1"></stop><stop offset="85.55555555555554%" stop-color="#3c70be" stop-opacity="1"></stop></linearGradient></defs><defs><linearGradient id="grad1_2" x1="43.8%" y1="0%" x2="100%" y2="100%"><stop offset="14.444444444444446%" stop-color="#314984" stop-opacity="1"></stop><stop offset="85.55555555555554%" stop-color="#3c70be" stop-opacity="1"></stop></linearGradient></defs><defs><linearGradient id="grad1_3" x1="43.8%" y1="0%" x2="100%" y2="100%"><stop offset="14.444444444444446%" stop-color="#314984" stop-opacity="1"></stop><stop offset="85.55555555555554%" stop-color="#1e264f" stop-opacity="1"></stop></linearGradient></defs><defs><linearGradient id="grad1_4" x1="43.8%" y1="0%" x2="100%" y2="100%"><stop offset="14.444444444444446%" stop-color="#080021" stop-opacity="1"></stop><stop offset="85.55555555555554%" stop-color="#1e264f" stop-opacity="1"></stop></linearGradient></defs><defs><linearGradient id="grad2_0" x1="0%" y1="0%" x2="56.3%" y2="100%"><stop offset="14.444444444444446%" stop-color="#3c9bfa" stop-opacity="1"></stop><stop offset="85.55555555555554%" stop-color="#3c9bfa" stop-opacity="1"></stop></linearGradient></defs><defs><linearGradient id="grad2_1" x1="0%" y1="0%" x2="56.3%" y2="100%"><stop offset="14.444444444444446%" stop-color="#3c70be" stop-opacity="1"></stop><stop offset="85.55555555555554%" stop-color="#3c9bfa" stop-opacity="1"></stop></linearGradient></defs><defs><linearGradient id="grad2_2" x1="0%" y1="0%" x2="56.3%" y2="100%"><stop offset="14.444444444444446%" stop-color="#3c70be" stop-opacity="1"></stop><stop offset="85.55555555555554%" stop-color="#314984" stop-opacity="1"></stop></linearGradient></defs><defs><linearGradient id="grad2_3" x1="0%" y1="0%" x2="56.3%" y2="100%"><stop offset="14.444444444444446%" stop-color="#1e264f" stop-opacity="1"></stop><stop offset="85.55555555555554%" stop-color="#314984" stop-opacity="1"></stop></linearGradient></defs><defs><linearGradient id="grad2_4" x1="0%" y1="0%" x2="56.3%" y2="100%"><stop offset="14.444444444444446%" stop-color="#1e264f" stop-opacity="1"></stop><stop offset="85.55555555555554%" stop-color="#080021" stop-opacity="1"></stop></linearGradient></defs><g transform="translate(960, 0)"><path d="M0 540C-50.4 479.1 -100.9 418.2 -163.8 395.4C-226.7 372.7 -302.2 388.1 -363.5 363.5C-424.7 338.8 -471.8 273.9 -498.9 206.6C-526 139.4 -533 69.7 -540 0L0 0Z" fill="#131737"></path><path d="M0 432C-40.3 383.3 -80.7 334.5 -131 316.3C-181.4 298.2 -241.7 310.5 -290.8 290.8C-339.8 271 -377.5 219.1 -399.1 165.3C-420.8 111.5 -426.4 55.8 -432 0L0 0Z" fill="#283769"></path><path d="M0 324C-30.3 287.4 -60.5 250.9 -98.3 237.3C-136 223.6 -181.3 232.9 -218.1 218.1C-254.8 203.3 -283.1 164.3 -299.3 124C-315.6 83.6 -319.8 41.8 -324 0L0 0Z" fill="#375ca1"></path><path d="M0 216C-20.2 191.6 -40.3 167.3 -65.5 158.2C-90.7 149.1 -120.9 155.3 -145.4 145.4C-169.9 135.5 -188.7 109.6 -199.6 82.7C-210.4 55.8 -213.2 27.9 -216 0L0 0Z" fill="#3e85db"></path><path d="M0 108C-10.1 95.8 -20.2 83.6 -32.8 79.1C-45.3 74.5 -60.4 77.6 -72.7 72.7C-84.9 67.8 -94.4 54.8 -99.8 41.3C-105.2 27.9 -106.6 13.9 -108 0L0 0Z" fill="#3c9bfa"></path></g><g transform="translate(0, 540)"><path d="M0 -540C76.8 -541.1 153.7 -542.2 206.6 -498.9C259.6 -455.6 288.8 -368 301.9 -301.9C315.1 -235.9 312.2 -191.4 349.2 -144.7C386.2 -97.9 463.1 -49 540 0L0 0Z" fill="#131737"></path><path d="M0 -432C61.5 -432.9 122.9 -433.7 165.3 -399.1C207.7 -364.5 231 -294.4 241.5 -241.5C252.1 -188.7 249.8 -153.1 279.4 -115.7C309 -78.3 370.5 -39.2 432 0L0 0Z" fill="#283769"></path><path d="M0 -324C46.1 -324.7 92.2 -325.3 124 -299.3C155.8 -273.4 173.3 -220.8 181.2 -181.2C189 -141.5 187.3 -114.8 209.5 -86.8C231.7 -58.8 277.9 -29.4 324 0L0 0Z" fill="#375ca1"></path><path d="M0 -216C30.7 -216.4 61.5 -216.9 82.7 -199.6C103.9 -182.2 115.5 -147.2 120.8 -120.8C126 -94.3 124.9 -76.6 139.7 -57.9C154.5 -39.2 185.2 -19.6 216 0L0 0Z" fill="#3e85db"></path><path d="M0 -108C15.4 -108.2 30.7 -108.4 41.3 -99.8C51.9 -91.1 57.8 -73.6 60.4 -60.4C63 -47.2 62.4 -38.3 69.8 -28.9C77.2 -19.6 92.6 -9.8 108 0L0 0Z" fill="#3c9bfa"></path></g></svg>